<?xml version="1.0" encoding="UTF-8" standalone="no"?>
<!-- Creator: CorelDRAW X7 -->

<svg
   xmlns:dc="http://purl.org/dc/elements/1.1/"
   xmlns:cc="http://creativecommons.org/ns#"
   xmlns:rdf="http://www.w3.org/1999/02/22-rdf-syntax-ns#"
   xmlns:svg="http://www.w3.org/2000/svg"
   xmlns="http://www.w3.org/2000/svg"
   xmlns:sodipodi="http://sodipodi.sourceforge.net/DTD/sodipodi-0.dtd"
   xmlns:inkscape="http://www.inkscape.org/namespaces/inkscape"
   xml:space="preserve"
   width="843.31"
   height="150"
   version="1.1"
   style="fill-rule:evenodd"
   viewBox="0 0 23800.083 4233.3334"
   id="svg2"
   inkscape:version="0.48.5 r10040"
   sodipodi:docname="icon full.svg"><metadata
     id="metadata38"><rdf:RDF><cc:Work
         rdf:about=""><dc:format>image/svg+xml</dc:format><dc:type
           rdf:resource="http://purl.org/dc/dcmitype/StillImage" /><dc:title /></cc:Work></rdf:RDF></metadata><sodipodi:namedview
     pagecolor="#ffffff"
     bordercolor="#666666"
     borderopacity="1"
     objecttolerance="10"
     gridtolerance="10"
     guidetolerance="10"
     inkscape:pageopacity="0"
     inkscape:pageshadow="2"
     inkscape:window-width="1301"
     inkscape:window-height="744"
     id="namedview36"
     showgrid="true"
     inkscape:zoom="0.27985061"
     inkscape:cx="421.65353"
     inkscape:cy="421.65353"
     inkscape:window-x="65"
     inkscape:window-y="24"
     inkscape:window-maximized="1"
     inkscape:current-layer="svg2"><inkscape:grid
       type="xygrid"
       id="grid3015"
       empspacing="5"
       visible="true"
       enabled="true"
       snapvisiblegridlinesonly="true" /></sodipodi:namedview><defs
     id="defs4"><style
       type="text/css"
       id="style6">
    .fil3 {fill:#727271;fill-rule:nonzero}
    .fil2 {fill:#EA533D;fill-rule:nonzero}
    .fil0 {fill:#E5A22A;fill-rule:nonzero}
    .fil1 {fill:#E94F35;fill-rule:nonzero}
   </style></defs><g
     id="Layer_x0020_1"
     transform="translate(0,-9124.5206)"><metadata
       id="CorelCorpID_0Corel-Layer" /><polygon
       class="fil0"
       points="2387,10200 1941,10200 1941,11395 1946,11395 2387,11395 3478,11395 3910,11395 3924,11395 3924,10200 3478,10200 3478,10949 2387,10949 "
       id="polygon10"
       style="fill:#e5a22a;fill-rule:nonzero" /><polygon
       class="fil0"
       points="3478,12862 3924,12862 3924,11667 3920,11667 3478,11667 2387,11667 1956,11667 1941,11667 1941,12862 2387,12862 2387,12113 3478,12113 "
       id="polygon12"
       style="fill:#e5a22a;fill-rule:nonzero" /><path
       class="fil0"
       d="m 5302,12377 c 66,-88 100,-213 100,-376 0,-163 -34,-288 -100,-375 -66,-88 -162,-132 -286,-132 -124,0 -220,44 -286,132 -68,87 -101,212 -101,375 0,163 33,288 101,376 66,89 162,133 286,133 124,0 220,-44 286,-133 z m 340,235 c -137,169 -345,254 -624,254 -279,0 -487,-85 -624,-254 -137,-169 -206,-373 -206,-611 0,-234 69,-437 206,-608 137,-172 345,-258 624,-258 279,0 487,86 624,258 137,171 205,374 205,608 0,238 -68,442 -205,611 z"
       id="path14"
       inkscape:connector-curvature="0"
       style="fill:#e5a22a;fill-rule:nonzero" /><path
       class="fil0"
       d="m 8177,11246 c 69,28 132,76 189,146 45,56 76,126 92,209 10,54 15,134 15,239 l -3,1023 -435,0 0,-1033 c 0,-62 -10,-113 -30,-152 -37,-76 -107,-114 -208,-114 -118,0 -198,49 -243,147 -23,51 -34,113 -34,186 l 0,966 -428,0 0,-966 c 0,-96 -10,-167 -29,-210 -36,-79 -106,-118 -211,-118 -121,0 -202,39 -244,118 -22,44 -34,111 -34,199 l 0,977 -430,0 0,-1620 412,0 0,237 c 53,-85 102,-145 149,-180 82,-64 189,-96 320,-96 125,0 225,27 301,82 62,51 108,116 140,195 56,-95 125,-165 207,-210 88,-45 185,-67 292,-67 71,0 142,15 212,42 z"
       id="path16"
       inkscape:connector-curvature="0"
       style="fill:#e5a22a;fill-rule:nonzero" /><path
       class="fil0"
       d="m 9286,11587 c -60,62 -98,145 -113,251 l 731,0 c -8,-113 -45,-198 -113,-256 -68,-59 -151,-88 -252,-88 -109,0 -193,31 -253,93 z m 635,-367 c 113,51 207,131 281,240 66,96 109,208 129,336 11,75 16,182 14,322 l -1182,0 c 6,163 63,277 169,343 65,41 143,61 234,61 97,0 175,-25 236,-75 33,-27 62,-64 87,-112 l 434,0 c -12,97 -64,194 -158,294 -145,158 -349,237 -610,237 -216,0 -407,-67 -572,-200 -165,-133 -248,-350 -248,-650 0,-281 75,-497 224,-647 149,-150 342,-225 580,-225 141,0 269,26 382,76 z"
       id="path18"
       inkscape:connector-curvature="0"
       style="fill:#e5a22a;fill-rule:nonzero" /><polygon
       class="fil1"
       points="12088,12469 12088,12863 10533,12863 10533,10668 10992,10668 10992,12469 "
       id="polygon20"
       style="fill:#e94f35;fill-rule:nonzero" /><path
       class="fil1"
       d="m 13264,12074 c -27,17 -54,31 -82,41 -28,10 -65,20 -114,29 l -97,18 c -90,15 -155,35 -195,58 -67,39 -100,99 -100,180 0,73 21,125 61,157 41,32 91,49 149,49 93,0 179,-27 257,-81 78,-54 118,-151 121,-293 l 0,-158 z m -259,-198 c 79,-10 135,-23 169,-38 61,-25 92,-65 92,-120 0,-67 -24,-112 -70,-137 -47,-26 -116,-39 -206,-39 -102,0 -174,25 -216,75 -30,36 -51,86 -61,148 l -409,0 c 9,-141 49,-258 119,-350 113,-142 306,-214 581,-214 178,0 337,35 475,106 139,71 208,204 208,399 l 0,745 c 0,52 1,115 3,187 3,56 12,94 25,113 15,20 35,37 63,50 l 0,62 -462,0 c -12,-32 -21,-63 -26,-92 -5,-29 -9,-61 -12,-98 -59,63 -127,117 -204,162 -92,53 -196,79 -312,79 -148,0 -270,-42 -366,-126 -96,-84 -144,-203 -144,-357 0,-199 77,-343 232,-433 85,-49 210,-83 375,-104 l 146,-18 z"
       id="path22"
       inkscape:connector-curvature="0"
       style="fill:#e94f35;fill-rule:nonzero" /><path
       class="fil1"
       d="m 15306,11333 c 106,88 159,234 159,437 l 0,1093 -434,0 0,-987 c 0,-85 -12,-151 -34,-197 -41,-83 -120,-124 -237,-124 -143,0 -241,60 -294,182 -27,65 -41,148 -41,248 l 0,878 -425,0 0,-1620 411,0 0,237 c 54,-84 106,-144 154,-180 88,-66 198,-99 331,-99 168,0 304,44 410,132 z"
       id="path24"
       inkscape:connector-curvature="0"
       style="fill:#e94f35;fill-rule:nonzero" /><path
       class="fil2"
       d="m 16283,11587 c -60,62 -97,145 -113,251 l 731,0 c -7,-113 -45,-198 -113,-256 -67,-59 -151,-88 -251,-88 -109,0 -194,31 -254,93 z m 635,-367 c 114,51 207,131 281,240 66,96 109,208 129,336 11,75 16,182 14,322 l -1182,0 c 6,163 63,277 170,343 64,41 142,61 234,61 96,0 175,-25 235,-75 33,-27 62,-64 88,-112 l 433,0 c -12,97 -64,194 -158,294 -145,158 -348,237 -610,237 -217,0 -407,-67 -572,-200 -165,-133 -248,-350 -248,-650 0,-281 75,-497 224,-647 149,-150 342,-225 581,-225 141,0 268,26 381,76 z"
       id="path26"
       inkscape:connector-curvature="0"
       style="fill:#ea533d;fill-rule:nonzero" /><path
       class="fil3"
       d="m 18036,12266 c 0,113 -91,204 -203,204 -113,0 -205,-91 -205,-204 0,-112 92,-204 205,-204 112,0 203,92 203,204 z"
       id="path28"
       inkscape:connector-curvature="0"
       style="fill:#727271;fill-rule:nonzero" /><path
       class="fil3"
       d="m 19184,12055 c -37,-168 -139,-269 -317,-269 -263,0 -394,238 -394,477 0,239 131,478 394,478 169,0 308,-133 325,-319 l 137,0 c -37,269 -213,434 -462,434 -344,0 -530,-271 -530,-593 0,-321 186,-593 530,-593 238,0 423,128 454,385 l -137,0 z"
       id="path30"
       inkscape:connector-curvature="0"
       style="fill:#727271;fill-rule:nonzero" /><path
       class="fil3"
       d="m 19580,12263 c 0,239 131,478 394,478 262,0 393,-239 393,-478 0,-239 -131,-478 -393,-478 -263,0 -394,239 -394,478 z m 924,0 c 0,322 -187,593 -530,593 -344,0 -530,-271 -530,-593 0,-321 186,-593 530,-593 343,0 530,272 530,593 z"
       id="path32"
       inkscape:connector-curvature="0"
       style="fill:#727271;fill-rule:nonzero" /><path
       class="fil3"
       d="m 20638,11703 126,0 0,189 6,0 c 72,-135 189,-222 367,-222 148,0 281,72 322,219 67,-147 208,-219 356,-219 246,0 372,128 372,393 l 0,798 -137,0 0,-791 c 0,-185 -70,-285 -265,-285 -237,0 -304,196 -304,405 l 0,671 -137,0 0,-798 c 2,-152 -61,-278 -235,-278 -237,0 -332,178 -334,413 l 0,663 -137,0 0,-1158 z"
       id="path34"
       inkscape:connector-curvature="0"
       style="fill:#727271;fill-rule:nonzero" /></g></svg>